<?xml version="1.0" encoding="utf-8"?>
<!-- Generator: Adobe Illustrator 19.2.1, SVG Export Plug-In . SVG Version: 6.00 Build 0)  -->
<svg version="1.1" id="Layer_1" xmlns="http://www.w3.org/2000/svg" xmlns:xlink="http://www.w3.org/1999/xlink" x="0px" y="0px"
	 viewBox="0 0 230.5 230.5" style="enable-background:new 0 0 230.5 230.5;" xml:space="preserve">
<style type="text/css">
	.st0{fill-rule:evenodd;clip-rule:evenodd;fill:#FFFFFF;}
	.st1{fill-rule:evenodd;clip-rule:evenodd;fill:#3D2C39;}
	.st2{fill-rule:evenodd;clip-rule:evenodd;fill:#F0AF1E;}
</style>
<rect x="35.6" y="72.2" class="st0" width="165.1" height="43"/>
<rect x="35.6" y="115.2" class="st1" width="143.1" height="74.6"/>
<path class="st2" d="M170.8,149.3l0,13.5c-28.3,0-39.1,0-67.3,0c-50.8-2-50.7-20.7-51.6-42.5l17,0c1.5,20.4,4.4,28.3,34.5,29
	L170.8,149.3z M170.5,166.3l0,11c-31.3,0-43.3,0-74.6,0c-56.3-2.2-58.2-33.5-59.2-57.1l11.3,0c1,23.6,0.8,43.8,53.1,46.1
	C130.3,166.3,141.4,166.3,170.5,166.3z M115.2,0c63.6,0,115.2,51.6,115.2,115.2s-51.6,115.2-115.2,115.2C51.6,230.5,0,178.9,0,115.2
	S51.6,0,115.2,0z"/>
<rect x="152.3" y="91.2" class="st0" width="41.4" height="16"/>
<rect x="94.5" y="91.2" class="st0" width="41.4" height="16"/>
<rect x="36.8" y="91.2" class="st0" width="41.4" height="16"/>
</svg>
